PathFileType	4	(X/Y/Z)	/home/abdul/Desktop/myosuite/custom_workspace/IK/output/S13_12_2.trc
DataRate	CameraRate	NumFrames	NumMarkers	Units	OrigDataRate	OrigDataStartFrame	OrigNumFrames
200.0	200.0	22	3	mm	200.0	1053	1403
Frame#	Time	V_Shoulder			V_Elbow			V_Wrist		
		X1	Y1	Z1	X2	Y2	Z2	X3	Y3	Z3

1053	5.26	-82.8794726438211	612.2740921191412	337.24098815564184	-179.62980771527901	477.48755352502315	23.734683690317954	-112.91109133686959	219.68208181537443	65.9483595980577
1054	5.265	-82.89525773282503	612.3176202130871	337.234023478046	-179.85002004974024	477.72747830074263	23.67031891880768	-113.36697103632855	219.95941630747333	66.3490844665651
1055	5.27	-82.91121969186457	612.3609195839103	337.2266034612655	-180.08136977795712	477.97500240041563	23.60637584894047	-113.84386531045243	220.2424156431652	66.75221176255339
1056	5.275	-82.92737022526678	612.4039798069392	337.21871471886647	-180.32401171582887	478.2302573417265	23.54291933900019	-114.34228194653656	220.53102545310819	67.15735217528339
1057	5.28	-82.9437216798822	612.4467908616933	337.21034420758104	-180.5780882858595	478.49336472223206	23.480016319506305	-114.86271255704955	220.82518175972106	67.56410678913747
1058	5.285	-82.96028703887556	612.4893431502195	337.2014792514378	-180.84372903883252	478.76443579996794	23.417735647812457	-115.40563122212865	221.12481107079967	67.97206768483954
1059	5.29	-82.9770799139185	612.5316275145398	337.19210756502287	-181.12105019798958	479.04357109574516	23.356147951180816	-115.97149314963058	221.4298305008147	68.38081857203186
1060	5.295	-82.99411453578965	612.5736352531617	337.1822172758083	-181.41015422719386	479.33086001826496	23.295325458828252	-116.56073335664084	221.74014791942096	68.78993545215238
1061	5.3	-83.01140574339136	612.6153581365962	337.17179694548764	-181.71112942449895	479.62638051310455	23.235341823496576	-117.17376537630483	222.0556621265897	69.19898731041096
1062	5.305	-83.02896897119491	612.6567884218426	337.1608355902638	-182.02404954247942	479.93019873654356	23.176271933152783	-117.81097999379173	222.37626305365825	69.60753683551545
1063	5.31	-83.04682023512912	612.6979188657893	337.1493227000368	-182.3489734366072	480.2423687551179	23.11819171347612	-118.47274401513519	222.70183198947768	70.01514116565431
1064	5.315	-83.06497611693139	612.7387427374911	337.1372482564429	-182.68594474288153	480.56293227170124	23.061177921836126	-119.1593990726158	223.03224183072473	70.42135265909927
1065	5.32	-83.08345374698193	612.7792538292828	337.12460274970107	-183.03499158583935	480.8919183788256	23.005307933510064	-119.87126047025927	223.36735735533713	70.8257196876511
1066	5.325	-83.10227078564567	612.8194464666939	337.1113771942271	-183.39612631798593	481.2293433398652	22.950659520928127	-120.6086160729197	223.70703551792843	71.22778745101587
1067	5.33	-83.12144540314938	612.8593155171258	337.0975631429794	-183.7693452915958	481.5752103986116	22.897310626771457	-121.37172524230371	224.0511257659369	71.62709881006725
1068	5.335	-83.14099625802363	612.898856397267	337.0831527005056	-184.15462866373974	481.92950961768247	22.845339131779767	-122.16081782316495	224.39947037517248	72.02319513682482
1069	5.34	-83.16094247414294	612.9380650792131	337.0681385346617	-184.551940235296	482.29221774610926	22.79482261815338	-122.97609318276312	224.751904803338	72.41561717885968
1070	5.345	-83.18130361639906	612.9769380952699	337.0525138869845	-184.96122732460435	482.66329811636314	22.74583812945754	-123.81771930653633	225.10825806002117	72.80390593572659
1071	5.35	-83.20209966504581	613.0154725414169	337.0362725816974	-185.38242067631774	483.0427005709827	22.698461927955563	-124.68583195278165	225.46835309158294	73.18760354491913
1072	5.355	-83.22335098875595	613.0536660794121	337.019409033338	-185.81543440590286	483.43036141888103	22.65276925031148	-125.58053386897669	225.8320071793039	73.56625417475024
1073	5.36	-83.24507831643284	613.091516937525	337.0019182529998	-186.26016598013388	483.8262034213209	22.608834062612015	-126.5018940722046	226.199032349096	73.93940492147713
1074	5.365	-83.26730270782214	613.1290239098842	336.98379585318526	-186.71649623381842	484.2301358074619	22.566728815662497	-127.44994719596943	226.56923579104136	74.30660670791593
